<svg width="1512" height="368" viewBox="0 0 1512 368" fill="none" xmlns="http://www.w3.org/2000/svg">
<path d="M86.8342 40.9394C86.8357 40.6258 110.168 27.9754 110.138 34.3425C110.154 30.8455 134.885 41.0415 134.925 32.3832C134.946 27.9215 157.997 23.0358 157.975 27.8111C157.964 30.1506 181.578 24.5199 181.547 31.2246C181.556 29.464 204.634 33.8158 204.618 37.2164C204.632 34.1776 228.547 39.305 228.523 44.418C228.51 47.1915 256.69 38.109 256.679 40.4725C256.712 33.406 281.034 41.2125 281.016 45.0231C281.02 44.1549 305.688 45.3304 305.659 51.5287C305.661 51.1428 332.058 56.8847 332.059 56.6194C332.067 54.7623 358.152 52.3026 358.151 52.4714C358.129 57.2226 379.636 45.6008 379.63 47.0238C379.638 45.3355 401.984 41.3631 401.972 44.0884C401.979 42.4725 420.217 34.0674 420.218 33.7539C420.215 34.5257 445.132 27.0922 445.126 28.5634C445.129 27.9122 468.331 20.6636 468.341 18.4931C468.317 23.6784 494.006 15.8867 494.012 14.5843C494.029 10.8219 521.476 16.5928 521.47 17.7022C521.445 23.1046 546.143 2.71859 546.107 10.6051C546.106 10.7257 572.928 15.1913 572.941 12.5142C572.954 9.59596 598.422 11.8364 598.43 10.0999C598.435 9.13521 622.814 -3.07619 622.797 0.734435C622.799 0.324405 649.249 2.08704 649.245 2.95529C649.206 11.3483 675.075 9.94875 675.082 8.59815C675.067 11.6852 702.206 0.692515 702.201 1.82605C702.211 -0.296336 727.356 11.204 727.369 8.26169C727.359 10.4805 753.681 9.66189 753.678 10.2649C753.688 8.16661 778.458 17.3981 778.463 16.4093C778.45 19.1587 800.832 30.2122 800.849 26.6186C800.857 24.9545 823.448 36.1777 823.45 35.6471C823.455 34.5618 847.836 37.2796 847.815 41.8138C847.823 40.029 875.271 45.5347 875.278 43.9911C875.277 44.0876 891.516 59.2127 891.506 61.3833C891.527 56.8009 916.311 63.1865 916.292 67.3589C916.302 65.0436 938.729 74.1436 938.718 76.3866C938.702 79.8113 963.683 73.9458 963.677 75.1758C963.687 72.9328 981.009 88.497 981.035 82.9741C981.01 88.3282 1000.84 84.6818 1000.84 84.2718C1000.84 84.0306 1026.74 90.3008 1026.73 92.9297C1026.73 93.5567 1047.93 79.3046 1047.93 79.2805C1047.94 76.9411 1073.05 73.5845 1073.04 75.4898C1073.03 79.1075 1099.12 82.2914 1099.13 79.2767C1099.13 80.8684 1124.34 77.8741 1124.33 79.49C1124.31 84.0723 1148.01 81.4327 1148.01 82.5663C1148.03 78.7556 1168.38 83.0948 1168.39 79.3566C1168.41 76.2212 1177.53 64.3491 1177.52 65.145C1177.52 66.5679 1206.93 70.4426 1206.95 65.402C1206.97 62.9179 1231.55 52.5645 1231.54 53.1915C1231.54 54.8557 1259.09 60.7476 1259.11 56.3341C1259.11 54.9835 1285.86 61.6194 1285.86 60.3894C1285.88 57.2058 1312.89 59.0193 1312.86 63.9876C1312.87 62.5164 1338.73 71.8012 1338.75 66.5676C1338.73 71.1018 1361.94 55.243 1361.94 55.0742C1361.94 53.3378 1385.51 58.0777 1385.55 49.7329C1385.53 54.46 1412.71 49.473 1412.69 53.5006C1412.7 51.9571 1434.63 39.8308 1434.61 43.2314C1434.64 36.5507 1462.02 50.3527 1462.03 47.2415C1461.97 60.7716 1485.27 46.6257 1485.3 40.8133C1485.29 42.5257 1507.9 34.7679 1507.93 29.2449C1507.92 29.8238 1534.02 32.5254 1534.01 33.4419C1534.03 30.7407 1561.48 28.2873 1561.46 31.7602C1561.44 35.2332 1567.04 50.4777 1567.04 50.2366C1567.03 52.986 1575.52 64.1921 1575.51 66.7968C1575.53 62.7691 1568.77 85.7225 1568.77 85.0955C1568.77 84.6614 1572.71 102.937 1572.72 102.045C1572.71 104.095 1583.32 117.361 1583.32 118.663C1583.33 116.203 1576.37 136.31 1576.37 136.31L1580.77 153.406L1577.41 170.611L1579.64 187.817L1577.95 204.982L1575.84 222.12L1584.19 240.223L1569.55 256.218L1568.11 273.528L1560.05 289.94L1560.08 307.691L1548.49 323.386L1547.92 341.352L1540.45 357.935L1522.58 371.696L1524.06 390.877L1500.98 401.936L1496.1 421.377L1473.6 428.026L1450.84 430.742L1428.81 434.017L1402.91 433.318L1377.16 431.824L1351.95 435.928L1326.33 435.423L1300.79 441.431L1275.17 434.583L1249.45 440.614L1224.34 438.061L1199.17 438.331L1174.11 432.113L1148.88 439.183L1123.71 440.224L1098.6 435.501L1073.43 437.314L1048.36 432.109L1023.2 432.45L998.077 430.477L972.853 436.1L947.688 436.466L922.622 430.706L897.495 430.493L872.26 438.262L847.14 436.53L821.97 438.053L796.914 430.027L771.749 430.513L746.563 435.437L721.45 432.113L696.338 428.692L671.464 434.22L646.639 436.614L621.85 431.482L597.053 435.588L572.136 427.73L547.346 430.196L522.69 434.23L497.975 435.587L472.663 429.947L448.884 440.858L423.496 436.52L399.463 441.859L374.751 442.613L350.208 444.742L325.123 442.938L301.181 451.316L276.065 448.764L251.138 450.723L226.265 448.388L198.492 445.221L170.788 442.271L143.154 439.152L116.906 431.698L93.8896 429.035L70.8027 426.588L46.5792 427.706L24.1674 423.068L1.22248 420.164L-25.886 401.926L-39.8371 384.037L-42.9393 366.224L-37.9558 348.134L-39.2379 330.281L-43.3551 312.486L-48.5221 294.663L-37.0642 276.603L-52.4858 258.853L-42.4984 240.907L-42.7655 223.034L-53.2514 205.066L-36.5091 187.031L-38.5943 168.788L-47.9581 150.342L-47.7335 132.086L-33.4071 114.304C-33.4071 114.304 -37.127 93.835 -37.1383 96.2709C-37.1358 95.7403 -35.242 79.7828 -35.2365 78.601C-35.2319 77.6122 -47.5454 61.2994 -47.5423 60.6241C-47.5455 61.3235 -44.0794 38.3789 -44.0994 42.696C-44.0898 40.6219 -31.5938 25.0994 -31.5986 26.1365C-31.6135 29.3683 -6.44307 35.3457 -6.44095 34.8875C-6.44262 35.2492 20.3384 41.0894 20.3203 44.9965C20.3153 46.0576 43.2984 40.7135 43.289 42.7394C43.2867 43.2458 65.1724 48.1468 65.1925 43.8056C65.1845 45.5421 86.7764 45.8592 86.7989 41.0116L86.8342 40.9394Z" fill="#FFDAFB"/>
</svg>
