<svg width="1512" height="382" viewBox="0 0 1512 382" fill="none" xmlns="http://www.w3.org/2000/svg">
<path d="M154.056 26.808C154.038 30.7633 185.436 22.0575 185.412 27.1946C185.424 24.5899 216.333 30.8109 216.322 33.0539C216.309 35.8515 239.797 34.9234 239.765 41.8693C239.802 33.8381 267.813 31.0737 267.779 38.3814C267.738 47.1602 289.004 49.96 289.024 45.5224C288.993 52.2271 311.683 34.6295 311.654 40.9483C311.658 40.1042 336.114 49.2137 336.115 48.9726C336.118 48.3455 357.117 40.5803 357.125 38.8197C357.111 42.0032 380.81 40.7142 380.818 39.0742C380.851 31.7907 405.25 38.1744 405.269 34.1468C405.26 35.9315 431.444 34.7023 431.444 34.7023C431.453 32.797 456.326 35.0105 456.344 31.1758C456.305 39.4241 481.629 19.9574 481.588 28.7845C481.599 26.4692 503.637 13.5475 503.625 16.2246C503.605 20.4934 530.23 14.732 530.214 18.0603C530.2 21.1232 555.719 19.915 555.735 16.4661C555.716 20.4697 578.336 2.77529 578.323 5.62117C578.329 4.36707 603.828 7.40354 603.833 6.31825C603.855 1.56705 628.227 -1.33478 628.204 3.60935C628.193 5.90053 652.875 11.5381 652.91 4.01334C652.907 4.68865 677.404 4.92275 677.423 0.991548C677.439 -2.65023 704.071 5.14286 704.086 2.05579C704.075 4.27461 728.802 7.83812 728.795 9.35751C728.79 10.5393 752.409 18.8972 752.415 17.6431C752.413 17.9808 782.325 20.3624 782.348 15.5148C782.364 11.9695 805.154 25.6295 805.155 25.3884C805.157 25.0266 824.978 37.3464 824.967 39.8788C824.971 39.0105 849.846 48.2185 849.853 46.8197C849.847 48.0014 877.51 44.8255 877.495 47.9367C877.487 49.8419 904.23 48.5911 904.232 48.2294C904.233 48.0846 929.768 58.4774 929.759 60.3827C929.754 61.468 955.768 66.6052 955.776 64.8446C955.775 65.0617 984.073 60.9239 984.061 63.3115C984.052 65.3615 1001.46 78.2973 1001.45 79.3826C1001.44 82.542 1027.15 84.5424 1027.15 84.7594C1027.16 81.383 1054.26 87.924 1054.26 86.7181C1054.27 84.1616 1080.56 83.2464 1080.57 82.3299C1080.57 81.0276 1107.62 89.0155 1107.62 89.0396C1107.61 91.8132 1131.08 79.1634 1131.08 79.2116C1131.08 78.874 1160.16 73.0998 1160.13 78.261C1160.13 79.5634 1181.01 66.4675 1181.02 65.0686C1181.04 59.6663 1204.96 50.0815 1204.93 56.2557C1204.96 48.3692 1226.04 61.4184 1226.05 60.6226C1226.05 60.5743 1248.88 57.1589 1248.87 60.0048C1248.87 58.7265 1271.96 60.8836 1271.97 58.6165C1272 53.0212 1298.11 67.2755 1298.1 70.2662C1298.09 72.2438 1325.22 55.0768 1325.17 64.8686C1325.13 73.6715 1350.94 62.6486 1350.96 58.6933C1350.95 60.9121 1378.45 55.3959 1378.44 57.1565C1378.43 60.4606 1402.26 51.9608 1402.27 49.5491C1402.26 52.3467 1427.96 43.5663 1427.94 46.4122C1427.92 51.0186 1450.67 27.85 1450.64 33.9759C1450.65 33.1558 1476.16 32.7677 1476.18 29.753C1476.13 39.0383 1502.76 32.0709 1502.78 29.5385C1502.78 29.3456 1530.4 35.262 1530.4 33.5979C1530.42 29.2808 1555.41 22.8365 1555.39 27.7083C1555.39 26.8641 1574.11 27.0474 1574.1 30.2309C1574.09 31.1956 1590.14 43.0879 1590.16 38.385C1590.16 37.4444 1599.33 52.4885 1599.33 53.8149C1599.32 54.1767 1609.35 73.7348 1609.36 71.323C1609.36 70.6236 1603.25 90.6376 1603.26 88.7564C1603.27 85.4282 1610.81 105.867 1610.81 105.361C1610.81 104.854 1610.35 121.011 1610.35 122.651C1610.34 123.616 1627.89 135.998 1627.88 137.831C1627.88 137.469 1624.16 155.54 1624.16 155.54L1629.61 172.135L1627.85 189.468L1644.96 205.079L1638.44 222.655L1632.27 239.606L1647.7 256.946L1642.54 274.046L1633.61 290.357L1628.14 307.239L1607.54 320.794L1603.42 340.094L1580.9 352.169L1577.52 371.81L1555.86 385.191L1546.48 400.149L1540.7 416.764L1514.03 418.449L1488.82 427.256L1463.2 420.192L1438.14 428.999L1412.76 429.074L1387.39 428.957L1361.86 425.004L1336.71 431.206L1311.3 430.485L1286.02 432.877L1260.62 431.649L1234.97 422.968L1209.69 425.553L1184.47 430.814L1159.09 431.106L1133.6 427.491L1108.25 428.965L1082.82 427.304L1057.53 430.66L1032.31 435.584L1006.76 428.712L981.564 435.903L956.013 429.176L930.613 427.298L905.445 435.912L879.871 426.291L854.613 431.697L829.322 436.644L803.865 432.185L778.467 429.824L753.097 429.273L727.754 430.265L702.481 438.83L677.11 438.447L651.658 432.806L626.238 427.696L600.917 431.558L575.589 437.06L550.212 437.787L524.812 428.528L499.45 433.596L474.077 433.527L448.705 433.312L423.349 429.65L397.935 438.431L372.643 428.402L347.267 429.007L321.828 435.811L296.459 434.898L271.179 429.861L245.763 431.6L220.35 432.616L195.109 426.831L169.608 431.681L145.714 429.689L121.705 429.891L97.7008 428.936L75.7656 419.621L51.2993 420.279L27.9044 416.312L5.88825 409.36L-10.2214 396.6L-31.5301 388.011L-49.0767 375.702L-55.5443 359.103L-61.139 342.942L-57.2801 325.86L-63.0865 310.084L-62.4159 293.759L-62.9353 277.452L-66.8458 260.358L-71.8762 243.283L-74.4566 226.147L-76.0219 208.968L-76.8871 191.768L-80.0619 174.533L-65.3545 157.597L-68.0746 140.413L-67.7153 123.29L-62.2477 106.457L-73.8526 88.2903L-70.3083 71.1345C-70.3083 71.1345 -61.0444 50.7252 -61.0472 51.3281C-61.0433 50.484 -44.7589 33.0979 -44.7669 34.8344C-44.7677 35.0032 -22.4531 22.8787 -22.4701 26.5445C-22.472 26.9545 0.389805 32.6801 0.381308 34.513C0.365993 37.8172 25.8362 39.527 25.8363 39.5029C25.862 33.9558 51.7724 31.3264 51.7574 34.5582C51.7606 33.8588 77.2817 32.1441 77.2793 32.6747C77.3077 26.5488 103.204 42.1045 103.236 35.1345C103.215 39.5722 128.365 27.3643 128.361 28.1602C128.351 30.4755 154.215 30.1612 154.23 26.9536L154.056 26.808Z" fill="white"/>
</svg>
